<?xml version="1.0" encoding="UTF-8"?><svg id="Layer_2" xmlns="http://www.w3.org/2000/svg" viewBox="0 0 67 67"><defs><style>.cls-1{stroke-miterlimit:10;}.cls-1,.cls-2{fill:none;stroke:#fff;stroke-width:2px;}.cls-2{stroke-linecap:round;stroke-linejoin:round;}</style></defs><g id="Layer_1-2"><g><path class="cls-1" d="M11.82,1h54.18V51.95c0,7.75-6.3,14.05-14.05,14.05H1V11.82C1,5.85,5.85,1,11.82,1Z"/><g><path class="cls-2" d="M48.1,65.29V29.03s-1.41-1.88-1.41-1.88c0,0,1.9-1.88,2.83-6.12l2.35-7.3,.47-1.88,2.82,8.95c.93,4.24,2.83,6.12,2.83,6.12l-1.41,1.88v36.27"/><path class="cls-2" d="M9.95,65.29V29.03s-1.41-1.88-1.41-1.88c0,0,1.9-1.88,2.83-6.12l2.35-7.3,.47-1.88,2.82,8.95c.93,4.24,2.83,6.12,2.83,6.12l-1.41,1.88v36.27"/><polyline class="cls-2" points="48.1 38.68 44.61 38.68 33.03 19.37 33.03 19.37 21.77 38.56 18.43 38.68"/><circle class="cls-2" cx="33.26" cy="42.68" r="4.95"/></g></g></g></svg>